<svg xmlns="http://www.w3.org/2000/svg" viewBox="0 0 513 513" width="64" height="64">
	<style>
		tspan { white-space:pre }
		.shp0 { fill: #fd5b03 } 
	</style>
	<g id="Layer">
		<path id="Layer" fill-rule="evenodd" class="shp0" d="M452 230.72L452 414.78L478.37 451.9L494.5 451.9C504.15 451.9 512 459.75 512 469.4L512 494.4C512 504.05 504.15 511.9 494.5 511.9L17.5 511.9C7.85 511.9 0 504.05 0 494.4L0 469.4C0 459.75 7.85 451.9 17.5 451.9L33.63 451.9L60 414.78L60 230.72L33.63 193.6C15.8 195.52 -0.16 181.26 0 163.6L0 141.1C-0.03 137.66 2.22 135.5 3.94 134.49L112.5 74.31C116.12 72.3 120.69 73.61 122.7 77.23C124.71 80.86 123.4 85.42 119.77 87.43L36.5 133.6L475.5 133.6L266.91 17.96C260.08 14.17 251.92 14.17 245.09 17.96L150.73 70.27C147.11 72.28 142.54 70.97 140.54 67.35C138.53 63.72 139.84 59.16 143.46 57.15L237.82 4.84C249.2 -1.47 262.8 -1.47 274.18 4.84L508.06 134.49C511.17 136.22 511.88 138.95 512 141.1L512 163.6C512.15 182.06 495.73 194.68 478.37 193.6L452 230.72ZM384.25 329.19C380.11 329.19 376.75 325.83 376.75 321.69L376.75 230.72L350.38 193.6L161.63 193.6L135.25 230.72L135.25 414.78L161.63 451.9L350.38 451.9L376.75 414.78L376.75 356.69C376.75 352.55 380.11 349.19 384.25 349.19C388.39 349.19 391.75 352.55 391.75 356.69L391.75 409.67L437 409.67L437 235.82L391.75 235.82L391.75 321.69C391.75 325.83 388.39 329.19 384.25 329.19ZM341.94 322.75C341.94 370.13 303.39 408.69 256 408.69C208.61 408.69 170.06 370.13 170.06 322.75C170.06 275.36 208.61 236.81 256 236.81C303.39 236.81 341.94 275.36 341.94 322.75ZM256 114.39C236.98 114.39 221.5 98.92 221.5 79.89C221.5 60.87 236.98 45.39 256 45.39C275.02 45.39 290.5 60.87 290.5 79.89C290.5 98.92 275.02 114.39 256 114.39ZM256 99.39C266.75 99.39 275.5 90.65 275.5 79.89C275.5 69.14 266.75 60.39 256 60.39C245.25 60.39 236.5 69.14 236.5 79.89C236.5 90.65 245.25 99.39 256 99.39ZM326.94 322.75C326.94 283.63 295.12 251.81 256 251.81C216.89 251.81 185.06 283.63 185.06 322.75C185.06 361.86 216.89 393.69 256 393.69C295.12 393.69 326.94 361.86 326.94 322.75ZM271.29 297.11C271.29 292.05 267.63 288.51 263.5 289.22L263.5 315.25C275.8 314.57 286.32 324.64 286.29 338.13L286.29 348.39C286.33 361.78 275.75 371.95 263.5 371.27L263.5 375.42C263.5 379.56 260.14 382.92 256 382.92C251.86 382.92 248.5 379.56 248.5 375.42L248.5 371.27C236.13 372.23 225.71 361.5 225.71 348.39C225.71 344.25 229.07 340.89 233.21 340.89C237.35 340.89 240.71 344.25 240.71 348.39C240.71 353.59 244.24 356.79 248.5 356.27L248.5 330.25C236.13 331.2 225.65 320.47 225.71 307.36L225.71 297.11C225.69 283.83 236.13 273.39 248.5 274.22L248.5 270.07C248.5 265.93 251.86 262.57 256 262.57C260.14 262.57 263.5 265.93 263.5 270.07L263.5 274.22C275.8 273.54 286.29 283.62 286.29 297.11C286.29 301.25 282.94 304.61 278.79 304.61C274.65 304.61 271.29 301.25 271.29 297.11ZM248.5 289.22C244.38 288.45 240.7 292.16 240.71 297.11L240.71 307.36C240.72 312.57 244.24 315.76 248.5 315.25L248.5 289.22ZM482 178.6C490.27 178.6 497 171.87 497 163.6L497 148.6L15 148.6L15 163.6C15 171.87 21.73 178.6 30 178.6L482 178.6ZM263.5 330.25L263.5 356.27C267.68 357.06 271.23 353.31 271.29 348.39L271.29 338.13C271.3 333.07 267.63 329.54 263.5 330.25ZM71.37 220.82L123.88 220.82L143.22 193.6L52.03 193.6L71.37 220.82ZM75 235.82L75 409.67L120.25 409.67L120.25 235.82L75 235.82ZM52.03 451.9L143.22 451.9L123.88 424.67L71.37 424.67L52.03 451.9ZM17.5 466.9C16.12 466.9 15 468.02 15 469.4L15 494.4C15 495.78 16.12 496.9 17.5 496.9L494.5 496.9C495.88 496.9 497 495.78 497 494.4L497 469.4C497 468.02 495.88 466.9 494.5 466.9L17.5 466.9ZM440.63 424.67L388.12 424.67L368.78 451.9L459.97 451.9L440.63 424.67ZM459.97 193.6L368.78 193.6L388.12 220.82L440.63 220.82L459.97 193.6Z" />
	</g>
</svg>