<svg xmlns="http://www.w3.org/2000/svg" viewBox="0 0 1536 1536" width="64" height="64">
	<style>
		tspan { white-space:pre }
		.shp0 { fill: #64b5f6 } 
		.shp1 { fill: #2196f3 } 
		.shp2 { fill: #fafafa } 
	</style>
	<g id="Capa 1">
		<path id="&lt;Path&gt;" class="shp0" d="M1402.5 1238.7C1488.9 1146 1536 1031.4 1536 912C1536 762.6 1462.2 627.3 1344 531.3C1341.3 873.6 1019.4 1152 624 1152L356.4 1152C459.9 1322.7 670.2 1440 912 1440L1488 1440C1507.5 1440 1524.9 1428.3 1532.4 1410.3C1539.9 1392.3 1535.7 1371.6 1521.9 1358.1L1402.5 1238.7Z" />
		<path id="&lt;Path&gt;" class="shp1" d="M624 0C279.9 0 0 236.7 0 528C0 647.4 47.1 761.7 133.5 854.7L14.1 974.1C0.3 987.9 -3.9 1008.6 3.6 1026.3C11.1 1044.3 28.5 1056 48 1056L624 1056C968.1 1056 1248 819.3 1248 528C1248 236.7 968.1 0 624 0Z" />
		<g id="&lt;Group&gt;">
			<path id="&lt;Path&gt;" class="shp2" d="M912 384L336 384C309.6 384 288 405.6 288 432C288 458.4 309.6 480 336 480L912 480C938.4 480 960 458.4 960 432C960 405.6 938.4 384 912 384Z" />
			<path id="&lt;Path&gt;" class="shp2" d="M720 576L336 576C309.6 576 288 597.6 288 624C288 650.4 309.6 672 336 672L720 672C746.4 672 768 650.4 768 624C768 597.6 746.4 576 720 576Z" />
		</g>
	</g>
</svg>