<svg xmlns="http://www.w3.org/2000/svg" viewBox="0 0 512 512" width="64" height="64">
	<style>
		tspan { white-space:pre }
		.shp0 { fill: #fd5b03 } 
	</style>
	<g id="Layer">
		<path id="Layer" fill-rule="evenodd" class="shp0" d="M494.47 24.72C504.14 24.72 512 32.59 512 42.25L512 365.93C512 375.6 504.14 383.46 494.47 383.46L412.61 383.46C408.46 383.46 405.1 380.1 405.1 375.95C405.1 371.8 408.46 368.44 412.61 368.44L494.47 368.44C495.85 368.44 496.97 367.31 496.97 365.93L496.97 138.92L433.84 138.92L379.28 392.88C376.99 403.51 367.97 411.42 357.32 412.52C361.28 419.72 363.55 427.99 363.55 436.78C363.55 464.62 340.89 487.27 313.05 487.27C285.2 487.27 262.55 464.62 262.55 436.78C262.55 428.05 264.78 419.83 268.69 412.66L226.76 412.66C230.67 419.83 232.9 428.05 232.9 436.78C232.9 464.62 210.25 487.27 182.4 487.27C154.56 487.27 131.91 464.62 131.91 436.78C131.91 427.89 134.22 419.54 138.27 412.27C128.42 410.52 120.28 402.9 118.13 392.88L116.11 383.46L17.53 383.46C7.86 383.46 0 375.6 0 365.93L0 42.26C0 32.59 7.86 24.73 17.53 24.73L494.47 24.72ZM217.87 436.78C217.87 417.22 201.96 401.31 182.4 401.31C162.84 401.31 146.93 417.22 146.93 436.78C146.93 456.34 162.84 472.25 182.4 472.25C201.96 472.25 217.87 456.34 217.87 436.78ZM348.52 436.78C348.52 417.22 332.61 401.31 313.05 401.31C293.49 401.31 277.58 417.22 277.58 436.78C277.58 456.34 293.49 472.25 313.05 472.25C332.61 472.25 348.52 456.34 348.52 436.78ZM496.97 123.89L496.97 42.25C496.97 40.87 495.85 39.75 494.47 39.75L17.53 39.75C16.15 39.75 15.03 40.87 15.03 42.25L15.03 123.89L280.15 123.89C284.3 123.89 287.66 127.26 287.66 131.41C287.66 135.56 284.3 138.92 280.15 138.92L15.03 138.92L15.03 365.93C15.03 367.32 16.15 368.44 17.53 368.44L112.88 368.44L102.71 321.12C101.84 317.06 104.42 313.07 108.48 312.19C112.54 311.33 116.53 313.9 117.4 317.96L132.82 389.72C133.81 394.31 137.93 397.63 142.62 397.63L150.55 397.63C159.24 390.54 170.33 386.28 182.4 386.28C194.47 386.28 205.56 390.54 214.26 397.63L281.19 397.63C289.89 390.54 300.98 386.28 313.05 386.28C325.12 386.28 336.21 390.54 344.91 397.63L354.8 397.63C359.49 397.63 363.6 394.31 364.59 389.72L421.09 126.74C422.51 120.16 428.41 115.39 435.14 115.39L458.77 115.39C464.29 115.39 468.79 110.9 468.79 105.37C468.79 99.85 464.29 95.36 458.77 95.36L435.14 95.36C419.03 95.36 404.89 106.78 401.51 122.53L388.41 183.5C387.66 186.96 384.6 189.44 381.06 189.44L102.19 189.44C99.14 189.44 96.3 190.79 94.39 193.16C92.48 195.52 91.75 198.59 92.39 201.56L110.92 287.78C111.79 291.83 109.2 295.83 105.15 296.7C101.09 297.56 97.1 294.99 96.23 290.93L77.7 204.71C76.1 197.28 77.93 189.63 82.71 183.72C87.48 177.8 94.58 174.41 102.19 174.41L374.99 174.41L382.62 138.92L314.9 138.92C310.75 138.92 307.38 135.56 307.38 131.41C307.38 127.26 310.75 123.89 314.9 123.89L385.84 123.89L386.81 119.37C391.68 96.75 412 80.33 435.14 80.33L458.77 80.33C472.58 80.33 483.81 91.56 483.81 105.37C483.81 112.7 480.65 119.31 475.61 123.89L496.97 123.89Z" />
		<path id="Layer" class="shp0" d="M55.53 96.19C47.43 96.19 40.88 89.64 40.88 81.54C40.88 73.44 47.43 66.89 55.53 66.89C63.63 66.89 70.18 73.44 70.18 81.54C70.18 89.64 63.63 96.19 55.53 96.19Z" />
		<path id="Layer" class="shp0" d="M100.08 96.19C91.98 96.19 85.43 89.64 85.43 81.54C85.43 73.44 91.98 66.89 100.08 66.89C108.19 66.89 114.73 73.44 114.73 81.54C114.73 89.64 108.19 96.19 100.08 96.19Z" />
		<path id="Layer" class="shp0" d="M144.64 96.19C136.53 96.19 129.99 89.64 129.99 81.54C129.99 73.44 136.53 66.89 144.64 66.89C152.74 66.89 159.29 73.44 159.29 81.54C159.29 89.64 152.74 96.19 144.64 96.19Z" />
		<path id="Layer" fill-rule="evenodd" class="shp0" d="M269.82 334.91C271.92 334.91 273.92 335.79 275.34 337.34C276.77 338.88 277.48 340.95 277.31 343.04L275.03 370.7C274.71 374.6 271.45 377.6 267.54 377.6L227.91 377.6C224 377.6 220.74 374.6 220.42 370.7L218.15 343.04C217.97 340.95 218.69 338.88 220.11 337.34C221.53 335.79 223.53 334.91 225.63 334.91L269.82 334.91ZM261.66 349.94L233.79 349.94L234.83 362.57L260.62 362.57L261.66 349.94Z" />
		<path id="Layer" fill-rule="evenodd" class="shp0" d="M116.54 218.56C115.45 214.05 119.24 209.36 123.88 209.47L180.12 209.47C184.03 209.47 187.29 212.47 187.61 216.37L189.89 244.03C190.33 248.27 186.67 252.25 182.4 252.16L129.82 252.16C126.28 252.16 123.22 249.69 122.48 246.22L116.54 218.56ZM133.18 224.5L135.89 237.13L174.24 237.13L173.2 224.5L133.18 224.5Z" />
		<path id="Layer" fill-rule="evenodd" class="shp0" d="M190.45 334.91C194.36 334.91 197.62 337.91 197.94 341.81L200.22 369.47C200.39 371.56 199.68 373.63 198.26 375.18C196.84 376.72 194.83 377.6 192.73 377.6L156.78 377.6C153.24 377.6 150.18 375.13 149.43 371.67L143.49 344C143.01 341.79 143.56 339.47 144.99 337.7C146.42 335.94 148.56 334.91 150.83 334.91L190.45 334.91ZM184.57 362.57L183.53 349.94L160.13 349.94L162.85 362.57L184.57 362.57Z" />
		<path id="Layer" fill-rule="evenodd" class="shp0" d="M185.29 272.19C189.2 272.19 192.45 275.19 192.78 279.09L195.05 306.75C195.23 308.84 194.51 310.91 193.09 312.46C191.67 314 189.67 314.88 187.57 314.88L143.3 314.88C139.76 314.88 136.7 312.41 135.96 308.94L130.01 281.28C129.53 279.06 130.09 276.75 131.51 274.98C132.94 273.22 135.09 272.19 137.36 272.19L185.29 272.19ZM179.41 299.85L178.37 287.22L146.66 287.22L149.37 299.85L179.41 299.85Z" />
		<path id="Layer" fill-rule="evenodd" class="shp0" d="M207.81 217.6C207.37 213.35 211.04 209.38 215.3 209.47L280.14 209.47C284.41 209.38 288.07 213.35 287.63 217.6L285.36 245.26C285.04 249.16 281.78 252.16 277.87 252.16L217.58 252.16C213.67 252.16 210.41 249.16 210.09 245.26L207.81 217.6ZM223.46 224.5L224.5 237.13L270.95 237.13L271.99 224.5L223.46 224.5Z" />
		<path id="Layer" fill-rule="evenodd" class="shp0" d="M302.36 312.46C300.94 310.91 300.23 308.84 300.4 306.75L302.68 279.09C303 275.19 306.25 272.19 310.16 272.19L360.05 272.19C362.32 272.19 364.47 273.22 365.89 274.98C367.32 276.75 367.87 279.06 367.4 281.28L361.45 308.94C360.71 312.41 357.65 314.88 354.11 314.88L307.88 314.88C305.79 314.88 303.78 314 302.36 312.46ZM316.04 299.85L348.04 299.85L350.75 287.22L317.08 287.22L316.04 299.85Z" />
		<path id="Layer" fill-rule="evenodd" class="shp0" d="M313.05 252.16C308.78 252.25 305.12 248.27 305.56 244.03L307.84 216.37C308.16 212.47 311.42 209.47 315.33 209.47L373.53 209.47C378.17 209.36 381.96 214.05 380.87 218.56L374.93 246.22C374.18 249.68 371.12 252.16 367.58 252.16L313.05 252.16ZM321.2 237.13L361.51 237.13L364.23 224.5L322.25 224.5L321.2 237.13Z" />
		<path id="Layer" fill-rule="evenodd" class="shp0" d="M280.51 274.62C281.93 276.16 282.64 278.23 282.47 280.32L280.19 307.98C279.87 311.88 276.62 314.88 272.7 314.88L222.74 314.88C218.83 314.88 215.58 311.88 215.26 307.98L212.98 280.32C212.81 278.23 213.52 276.16 214.94 274.62C216.36 273.07 218.37 272.19 220.47 272.19L274.98 272.19C277.08 272.19 279.09 273.07 280.51 274.62ZM266.83 287.22L228.63 287.22L229.67 299.85L265.79 299.85L266.83 287.22Z" />
		<path id="Layer" fill-rule="evenodd" class="shp0" d="M302.72 377.6C300.62 377.6 298.62 376.72 297.19 375.18C295.77 373.63 295.06 371.56 295.23 369.47L297.51 341.81C297.83 337.91 301.09 334.91 305 334.91L346.57 334.91C348.84 334.91 350.99 335.94 352.42 337.7C353.85 339.47 354.4 341.78 353.92 344L347.98 371.66C347.23 375.13 344.17 377.6 340.63 377.6L302.72 377.6ZM310.88 362.57L334.56 362.57L337.27 349.94L311.92 349.94L310.88 362.57Z" />
		<path id="Layer" class="shp0" d="M182.4 423.88C175.28 423.88 169.51 429.66 169.51 436.78C169.51 443.9 175.28 449.67 182.4 449.67C189.52 449.67 195.3 443.9 195.3 436.78C195.3 429.66 189.52 423.88 182.4 423.88Z" />
		<path id="Layer" class="shp0" d="M313.05 423.88C305.93 423.88 300.15 429.66 300.15 436.78C300.15 443.9 305.93 449.67 313.05 449.67C320.17 449.67 325.94 443.9 325.94 436.78C325.94 429.66 320.17 423.88 313.05 423.88Z" />
	</g>
</svg>