<svg xmlns="http://www.w3.org/2000/svg" viewBox="0 0 800 800" width="64" height="64">
	<defs>
		<clipPath clipPathUnits="userSpaceOnUse" id="cp1">
			<path d="M0 0L800 0L800 800L0 800Z" />
		</clipPath>
		<linearGradient id="grd1" gradientUnits="userSpaceOnUse"  x1="400" y1="800" x2="400" y2="70.313">
			<stop offset="0" stop-color="#fd5900"  />
			<stop offset="1" stop-color="#ffde00"  />
		</linearGradient>
		<linearGradient id="grd2" gradientUnits="userSpaceOnUse"  x1="400" y1="703.125" x2="400" y2="0">
			<stop offset="0" stop-color="#ffe59a"  />
			<stop offset="1" stop-color="#ffffd5"  />
		</linearGradient>
	</defs>
	<style>
		tspan { white-space:pre }
		.shp0 { fill: url(#grd1) } 
		.shp1 { fill: url(#grd2) } 
	</style>
	<g id="Page 1" clip-path="url(#cp1)">
		<path id="Path 1" class="shp0" d="M400 398.44C490.45 398.44 564.06 324.83 564.06 234.38C564.06 143.92 490.45 70.31 400 70.31C309.55 70.31 235.94 143.92 235.94 234.38C235.94 324.83 309.55 398.44 400 398.44ZM729.69 281.25L598.76 281.25C588.83 281.25 579.99 287.5 576.65 296.86C550.2 371.64 479.19 421.88 400 421.88C320.81 421.88 249.8 371.64 223.35 296.86C220 287.5 211.17 281.25 201.24 281.25L70.31 281.25C31.54 281.25 0 312.79 0 351.56L0 729.69C0 768.46 31.54 800 70.31 800L729.69 800C768.46 800 800 768.46 800 729.69L800 351.56C800 312.79 768.46 281.25 729.69 281.25Z" />
		<path id="Path 2" fill-rule="evenodd" class="shp1" d="M165.63 234.38C165.63 105 270.62 0 400 0C529.38 0 634.38 105 634.38 234.38C634.38 363.75 529.38 468.75 400 468.75C270.62 468.75 165.63 363.75 165.63 234.38ZM423.44 351.56C423.44 338.44 413.13 328.12 400 328.12C386.87 328.12 376.56 338.44 376.56 351.56C376.56 364.69 386.87 375 400 375C413.13 375 423.44 364.69 423.44 351.56ZM329.69 164.06C329.69 177.18 340 187.5 353.13 187.5C366.25 187.5 376.56 177.18 376.56 164.06C376.56 150.94 386.87 140.63 400 140.63C413.13 140.63 423.44 150.94 423.44 164.06C423.44 172.5 418.75 180 411.72 184.22C390.15 196.88 376.56 220.31 376.56 245.16L376.56 257.81C376.56 270.94 386.87 281.25 400 281.25C413.13 281.25 423.44 270.94 423.44 257.81L423.44 245.16C423.44 236.72 428.13 229.22 435.16 225C456.72 212.35 470.31 188.91 470.31 164.06C470.31 125.15 438.91 93.75 400 93.75C361.09 93.75 329.69 125.15 329.69 164.06ZM696.26 463.33L415.01 697.7C414.64 698.01 407.54 703.13 400 703.13C392.5 703.13 385.39 698.04 384.99 697.7L103.74 463.33C93.8 455.04 92.47 440.25 100.76 430.3C109.04 420.32 123.83 419.11 133.76 427.3L400 649.16L666.24 427.3C676.12 419.04 690.96 420.27 699.24 430.3C707.53 440.25 706.2 455.04 696.26 463.33Z" />
	</g>
</svg>