<svg xmlns="http://www.w3.org/2000/svg" viewBox="0 0 937 938" width="64" height="64">
	<style>
		tspan { white-space:pre }
		.shp0 { fill: #ffffff } 
	</style>
	<g id="surface1">
		<path id="Layer" class="shp0" d="M701.82 363.48L680.75 386.52L776.57 474.36C799.13 495.11 811.99 524.36 812 555L812 937.5L843.25 937.5L843.25 555C843.21 515.59 826.68 478 797.66 451.32L701.82 363.48Z" />
		<path id="Layer" fill-rule="evenodd" class="shp0" d="M655.75 78.13L655.75 540.41L760.55 645.23L738.45 667.33L584.22 513.09C565.67 493.75 535.56 491.43 514.27 507.7C503.21 516.77 496.5 530.09 495.79 544.38C495.08 558.66 500.44 572.58 510.55 582.7L619.92 692.08C625.18 697.34 626.02 705.59 621.88 711.8C582.76 770.32 561.93 839.16 562 909.55L562 937.5L171.38 937.5C128.25 937.45 93.3 902.5 93.25 859.38L93.25 78.13C93.3 35 128.25 0.05 171.38 0L577.63 0C620.75 0.05 655.7 35 655.75 78.13ZM624.5 125L124.5 125L124.5 781.25L515.13 781.25L515.13 812.5L124.5 812.5L124.5 859.38C124.5 885.26 145.49 906.25 171.38 906.25L530.86 906.25C531.36 835.2 551.45 765.65 588.92 705.27L488.45 604.8C472.11 588.45 463.44 565.96 464.56 542.87C465.69 519.78 476.52 498.24 494.38 483.57C528.13 457.15 576.34 460.34 606.31 490.97L624.5 509.16L624.5 125ZM624.5 78.13C624.5 52.24 603.51 31.25 577.63 31.25L171.38 31.25C145.49 31.25 124.5 52.24 124.5 78.13L124.5 93.75L624.5 93.75L624.5 78.13Z" />
		<path id="Layer" fill-rule="evenodd" class="shp0" d="M155.75 250L155.75 187.5C155.75 170.24 169.74 156.25 187 156.25L249.5 156.25C266.76 156.25 280.75 170.24 280.75 187.5L280.75 250C280.75 267.26 266.76 281.25 249.5 281.25L187 281.25C169.74 281.25 155.75 267.26 155.75 250ZM187 250L249.5 250L249.5 187.5L187 187.5L187 250Z" />
		<path id="Layer" fill-rule="evenodd" class="shp0" d="M312 250L312 187.5C312 170.24 325.99 156.25 343.25 156.25L405.75 156.25C423.01 156.25 437 170.24 437 187.5L437 250C437 267.26 423.01 281.25 405.75 281.25L343.25 281.25C325.99 281.25 312 267.26 312 250ZM343.25 250L405.75 250L405.75 187.5L343.25 187.5L343.25 250Z" />
		<path id="Layer" fill-rule="evenodd" class="shp0" d="M468.25 250L468.25 187.5C468.25 170.24 482.24 156.25 499.5 156.25L562 156.25C579.26 156.25 593.25 170.24 593.25 187.5L593.25 250C593.25 267.26 579.26 281.25 562 281.25L499.5 281.25C482.24 281.25 468.25 267.26 468.25 250ZM499.5 250L562 250L562 187.5L499.5 187.5L499.5 250Z" />
		<path id="Layer" fill-rule="evenodd" class="shp0" d="M155.75 406.25L155.75 343.75C155.75 326.49 169.74 312.5 187 312.5L249.5 312.5C266.76 312.5 280.75 326.49 280.75 343.75L280.75 406.25C280.75 423.51 266.76 437.5 249.5 437.5L187 437.5C169.74 437.5 155.75 423.51 155.75 406.25ZM187 406.25L249.5 406.25L249.5 343.75L187 343.75L187 406.25Z" />
		<path id="Layer" fill-rule="evenodd" class="shp0" d="M155.75 562.5L155.75 500C155.75 482.74 169.74 468.75 187 468.75L249.5 468.75C266.76 468.75 280.75 482.74 280.75 500L280.75 562.5C280.75 579.76 266.76 593.75 249.5 593.75L187 593.75C169.74 593.75 155.75 579.76 155.75 562.5ZM187 562.5L249.5 562.5L249.5 500L187 500L187 562.5Z" />
		<path id="Layer" fill-rule="evenodd" class="shp0" d="M312 406.25L312 343.75C312 326.49 325.99 312.5 343.25 312.5L405.75 312.5C423.01 312.5 437 326.49 437 343.75L437 406.25C437 423.51 423.01 437.5 405.75 437.5L343.25 437.5C325.99 437.5 312 423.51 312 406.25ZM343.25 406.25L405.75 406.25L405.75 343.75L343.25 343.75L343.25 406.25Z" />
		<path id="Layer" fill-rule="evenodd" class="shp0" d="M468.25 406.25L468.25 343.75C468.25 326.49 482.24 312.5 499.5 312.5L562 312.5C579.26 312.5 593.25 326.49 593.25 343.75L593.25 406.25C593.25 423.51 579.26 437.5 562 437.5L499.5 437.5C482.24 437.5 468.25 423.51 468.25 406.25ZM499.5 406.25L562 406.25L562 343.75L499.5 343.75L499.5 406.25Z" />
		<path id="Layer" fill-rule="evenodd" class="shp0" d="M312 562.5L312 500C312 482.74 325.99 468.75 343.25 468.75L405.75 468.75C423.01 468.75 437 482.74 437 500L437 562.5C437 579.76 423.01 593.75 405.75 593.75L343.25 593.75C325.99 593.75 312 579.76 312 562.5ZM343.25 562.5L405.75 562.5L405.75 500L343.25 500L343.25 562.5Z" />
		<path id="Layer" fill-rule="evenodd" class="shp0" d="M155.75 718.75L155.75 656.25C155.75 638.99 169.74 625 187 625L249.5 625C266.76 625 280.75 638.99 280.75 656.25L280.75 718.75C280.75 736.01 266.76 750 249.5 750L187 750C169.74 750 155.75 736.01 155.75 718.75ZM187 718.75L249.5 718.75L249.5 656.25L187 656.25L187 718.75Z" />
		<path id="Layer" fill-rule="evenodd" class="shp0" d="M312 718.75L312 656.25C312 638.99 325.99 625 343.25 625L405.75 625C423.01 625 437 638.99 437 656.25L437 718.75C437 736.01 423.01 750 405.75 750L343.25 750C325.99 750 312 736.01 312 718.75ZM343.25 718.75L405.75 718.75L405.75 656.25L343.25 656.25L343.25 718.75Z" />
		<path id="Layer" class="shp0" d="M358.88 843.75L390.13 843.75L390.13 875L358.88 875L358.88 843.75Z" />
	</g>
</svg>