<?xml version="1.0"?>
<svg xmlns="http://www.w3.org/2000/svg" xmlns:xlink="http://www.w3.org/1999/xlink" xmlns:svgjs="http://svgjs.com/svgjs" version="1.1" width="512" height="512" x="0" y="0" viewBox="0 0 512 512" style="enable-background:new 0 0 512 512" xml:space="preserve" class=""><g><g xmlns="http://www.w3.org/2000/svg"><path d="m496 433.376v-297.376c0-22.056-17.944-40-40-40h-40v-40c0-13.233-10.767-24-24-24h-8v-8c0-13.233-10.767-24-24-24h-66.745c-10.685 0-20.729 4.161-28.285 11.716l-8.97 8.97-8.97-8.97c-7.555-7.555-17.6-11.716-28.285-11.716h-66.745c-13.233 0-24 10.767-24 24v8h-8c-13.233 0-24 10.767-24 24v40h-40c-22.056 0-40 17.944-40 40v297.376c-9.311 3.303-16 12.195-16 22.624v16c0 22.056 17.944 40 40 40h432c22.056 0 40-17.944 40-40v-16c0-10.429-6.689-19.321-16-22.624zm-376-169.376h113.371c7.542 21.272 37.709 21.291 45.258 0h113.371c13.233 0 24-10.767 24-24v-96h32v256h-384v-256h32v96c0 13.233 10.767 24 24 24zm156.284-240.97c4.533-4.533 10.56-7.03 16.971-7.03h66.745c4.411 0 8 3.589 8 8v168c0 4.411-3.589 8-8 8h-66.745c-11.07 0-20.698 4.121-29.255 12.687v-177.374zm-132.284.97c0-4.411 3.589-8 8-8h66.745c6.411 0 12.438 2.497 16.971 7.03l12.284 12.283v177.373c-8.557-8.565-18.185-12.686-29.255-12.686h-66.745c-4.411 0-8-3.589-8-8zm-32 32c0-4.411 3.589-8 8-8h8v144c0 13.233 10.767 24 24 24h66.745c6.411 0 12.438 2.497 16.971 7.03 15.561 15.561 16.729 18.566 23.346 16.36 2.139-.925 1.623-.761 17.223-16.36 4.533-4.533 10.56-7.03 16.971-7.03h66.744c13.233 0 24-10.767 24-24v-144h8c4.411 0 8 3.589 8 8v184c0 4.411-3.589 8-8 8h-120c-4.418 0-8 3.582-8 8 0 4.411-3.589 8-8 8s-8-3.589-8-8c0-4.418-3.582-8-8-8h-120c-4.411 0-8-3.589-8-8zm-80 80c0-13.233 10.767-24 24-24h40v16h-40c-4.418 0-8 3.582-8 8v272c0 4.418 3.582 8 8 8h400c4.418 0 8-3.582 8-8v-272c0-4.418-3.582-8-8-8h-40v-16h40c13.233 0 24 10.767 24 24v296h-168c-2.122 0-4.156.843-5.657 2.343l-13.656 13.657h-73.373l-13.656-13.657c-1.501-1.5-3.535-2.343-5.657-2.343h-168.001zm464 336c0 13.233-10.767 24-24 24h-432c-13.233 0-24-10.767-24-24v-16c0-4.411 3.589-8 8-8h172.687l13.656 13.657c1.501 1.5 3.535 2.343 5.657 2.343h80c2.122 0 4.156-.843 5.657-2.343l13.656-13.657h172.687c4.411 0 8 3.589 8 8z" fill="#ffffff" data-original="#000000" style="" class=""/><path d="m288 80c2.048 0 4.095-.781 5.657-2.343l6.627-6.627c4.533-4.533 10.56-7.03 16.971-7.03h26.745c4.418 0 8-3.582 8-8s-3.582-8-8-8h-26.745c-10.685 0-20.729 4.161-28.285 11.716l-6.627 6.627c-5.055 5.057-1.406 13.657 5.657 13.657z" fill="#ffffff" data-original="#000000" style="" class=""/><path d="m288 128c2.048 0 4.095-.781 5.657-2.343l6.627-6.627c4.533-4.533 10.56-7.03 16.971-7.03h26.745c4.418 0 8-3.582 8-8s-3.582-8-8-8h-26.745c-10.685 0-20.729 4.161-28.285 11.716l-6.627 6.627c-5.055 5.057-1.406 13.657 5.657 13.657z" fill="#ffffff" data-original="#000000" style="" class=""/><path d="m288 176c2.048 0 4.095-.781 5.657-2.343l6.627-6.627c4.533-4.533 10.56-7.03 16.971-7.03h26.745c4.418 0 8-3.582 8-8s-3.582-8-8-8h-26.745c-10.685 0-20.729 4.161-28.285 11.716l-6.627 6.627c-5.055 5.057-1.406 13.657 5.657 13.657z" fill="#ffffff" data-original="#000000" style="" class=""/><path d="m168 64h26.745c6.411 0 12.438 2.497 16.971 7.03l6.627 6.627c1.562 1.562 3.609 2.343 5.657 2.343 7.065 0 10.711-8.602 5.657-13.657l-6.627-6.627c-7.555-7.555-17.6-11.716-28.285-11.716h-26.745c-4.418 0-8 3.582-8 8s3.582 8 8 8z" fill="#ffffff" data-original="#000000" style="" class=""/><path d="m168 112h26.745c6.411 0 12.438 2.497 16.971 7.03l6.627 6.627c1.563 1.562 3.609 2.343 5.657 2.343 7.065 0 10.711-8.602 5.657-13.657l-6.627-6.627c-7.555-7.555-17.6-11.716-28.285-11.716h-26.745c-4.418 0-8 3.582-8 8s3.582 8 8 8z" fill="#ffffff" data-original="#000000" style="" class=""/><path d="m168 160h26.745c6.411 0 12.438 2.497 16.971 7.03l6.627 6.627c1.563 1.562 3.609 2.343 5.657 2.343 7.065 0 10.711-8.602 5.657-13.657l-6.627-6.627c-7.555-7.555-17.6-11.716-28.285-11.716h-26.745c-4.418 0-8 3.582-8 8s3.582 8 8 8z" fill="#ffffff" data-original="#000000" style="" class=""/></g></g></svg>
