<svg xmlns="http://www.w3.org/2000/svg" viewBox="0 0 512 512" width="64" height="64">
	<style>
		tspan { white-space:pre }
		.shp0 { fill: #fd5b03 } 
	</style>
	<path id="Layer" fill-rule="evenodd" class="shp0" d="M472 24C475.15 24 478.27 24.63 481.18 25.83C484.09 27.04 486.73 28.81 488.96 31.04C491.19 33.27 492.96 35.91 494.17 38.82C495.37 41.73 496 44.85 496 48L496 464C496 467.15 495.37 470.27 494.17 473.18C492.96 476.09 491.19 478.73 488.96 480.96C486.73 483.19 484.09 484.96 481.18 486.17C478.27 487.37 475.15 488 472 488L40 488C36.85 488 33.73 487.37 30.82 486.17C27.91 484.96 25.27 483.19 23.04 480.96C20.81 478.73 19.04 476.09 17.83 473.18C16.63 470.27 16 467.15 16 464L16 48C16 44.85 16.63 41.73 17.83 38.82C19.04 35.91 20.81 33.27 23.04 31.04C25.27 28.81 27.91 27.04 30.82 25.83C33.73 24.63 36.85 24 40 24L472 24ZM40 40C38.95 40 37.91 40.21 36.94 40.61C35.97 41.01 35.09 41.6 34.35 42.35C33.6 43.09 33.01 43.97 32.61 44.94C32.21 45.91 32 46.95 32 48L32 88L480 88L480 48C480 46.95 479.79 45.91 479.39 44.94C478.99 43.97 478.4 43.09 477.65 42.35C476.91 41.6 476.03 41.01 475.06 40.61C474.09 40.21 473.05 40 472 40L40 40ZM472 472C473.05 472 474.09 471.79 475.06 471.39C476.03 470.99 476.91 470.4 477.65 469.65C478.4 468.91 478.99 468.03 479.39 467.06C479.79 466.09 480 465.05 480 464L480 104L32 104L32 464C32 465.05 32.21 466.09 32.61 467.06C33.01 468.03 33.6 468.91 34.35 469.65C35.09 470.4 35.97 470.99 36.94 471.39C37.91 471.79 38.95 472 40 472L472 472Z" />
	<path id="Layer" class="shp0" d="M120 72C115.58 72 112 68.42 112 64C112 59.58 115.58 56 120 56C124.42 56 128 59.58 128 64C128 68.42 124.42 72 120 72Z" />
	<path id="Layer" class="shp0" d="M88 72C83.58 72 80 68.42 80 64C80 59.58 83.58 56 88 56C92.42 56 96 59.58 96 64C96 68.42 92.42 72 88 72Z" />
	<path id="Layer" class="shp0" d="M56 72C51.58 72 48 68.42 48 64C48 59.58 51.58 56 56 56C60.42 56 64 59.58 64 64C64 68.42 60.42 72 56 72Z" />
	<path id="Layer" fill-rule="evenodd" class="shp0" d="M443.06 136.61C444.03 137.01 444.91 137.6 445.66 138.34C446.4 139.09 446.99 139.97 447.39 140.94C447.79 141.91 448 142.95 448 144L448 272C448 273.05 447.79 274.09 447.39 275.06C446.99 276.03 446.4 276.91 445.66 277.66C444.91 278.4 444.03 278.99 443.06 279.39C442.09 279.79 441.05 280 440 280L72 280C70.95 280 69.91 279.79 68.94 279.39C67.97 278.99 67.09 278.4 66.34 277.66C65.6 276.91 65.01 276.03 64.61 275.06C64.21 274.09 64 273.05 64 272L64 144C64 142.95 64.21 141.91 64.61 140.94C65.01 139.97 65.6 139.09 66.34 138.34C67.09 137.6 67.97 137.01 68.94 136.61C69.91 136.21 70.95 136 72 136L440 136C441.05 136 442.09 136.21 443.06 136.61ZM432 152L80 152L80 264L131.84 264L185.45 187.41C186.18 186.36 187.16 185.5 188.31 184.9C189.45 184.31 190.71 184 192 184C193.29 184 194.55 184.31 195.69 184.9C196.84 185.5 197.82 186.36 198.55 187.41L232.77 236.3L257.6 203.2C258.35 202.21 259.31 201.4 260.42 200.84C261.53 200.29 262.76 200 264 200C265.24 200 266.47 200.29 267.58 200.84C268.69 201.4 269.65 202.21 270.4 203.2L299.15 241.54L322.34 218.34C323.09 217.6 323.97 217.01 324.94 216.61C325.91 216.21 326.95 216 328 216C329.05 216 330.09 216.21 331.06 216.61C332.03 217.01 332.91 217.6 333.66 218.34L379.31 264L432 264L432 152ZM264 221.33L232 264L296 264L264 221.33ZM222.67 249.77L192 205.95L151.37 264L212 264L222.67 249.77ZM316 264L356.69 264L328 235.31L308.85 254.47L316 264Z" />
	<path id="Layer" class="shp0" d="M304 200C299.58 200 296 196.42 296 192C296 187.58 299.58 184 304 184C308.42 184 312 187.58 312 192C312 196.42 308.42 200 304 200Z" />
	<path id="Layer" fill-rule="evenodd" class="shp0" d="M288.97 399.03C293.47 403.53 296 409.63 296 416C296 422.37 293.47 428.47 288.97 432.97C284.47 437.47 278.37 440 272 440L240 440C233.63 440 227.53 437.47 223.03 432.97C218.53 428.47 216 422.37 216 416C216 409.63 218.53 403.53 223.03 399.03C227.53 394.53 233.63 392 240 392L272 392C278.37 392 284.47 394.53 288.97 399.03ZM277.66 421.66C279.16 420.16 280 418.12 280 416C280 413.88 279.16 411.84 277.66 410.34C276.16 408.84 274.12 408 272 408L240 408C237.88 408 235.84 408.84 234.34 410.34C232.84 411.84 232 413.88 232 416C232 418.12 232.84 420.16 234.34 421.66C235.84 423.16 237.88 424 240 424L272 424C274.12 424 276.16 423.16 277.66 421.66Z" />
	<path id="Layer" class="shp0" d="M304 328C306.12 328 308.16 327.16 309.66 325.66C311.16 324.16 312 322.12 312 320C312 317.88 311.16 315.84 309.66 314.34C308.16 312.84 306.12 312 304 312L208 312C205.88 312 203.84 312.84 202.34 314.34C200.84 315.84 200 317.88 200 320C200 322.12 200.84 324.16 202.34 325.66C203.84 327.16 205.88 328 208 328L304 328Z" />
	<path id="Layer" class="shp0" d="M344 344L168 344C165.88 344 163.84 344.84 162.34 346.34C160.84 347.84 160 349.88 160 352C160 354.12 160.84 356.16 162.34 357.66C163.84 359.16 165.88 360 168 360L344 360C346.12 360 348.16 359.16 349.66 357.66C351.16 356.16 352 354.12 352 352C352 349.88 351.16 347.84 349.66 346.34C348.16 344.84 346.12 344 344 344Z" />
	<path id="Layer" class="shp0" d="M136 344L120 344C117.88 344 115.84 344.84 114.34 346.34C112.84 347.84 112 349.88 112 352C112 354.12 112.84 356.16 114.34 357.66C115.84 359.16 117.88 360 120 360L136 360C138.12 360 140.16 359.16 141.66 357.66C143.16 356.16 144 354.12 144 352C144 349.88 143.16 347.84 141.66 346.34C140.16 344.84 138.12 344 136 344Z" />
	<path id="Layer" class="shp0" d="M392 344L376 344C373.88 344 371.84 344.84 370.34 346.34C368.84 347.84 368 349.88 368 352C368 354.12 368.84 356.16 370.34 357.66C371.84 359.16 373.88 360 376 360L392 360C394.12 360 396.16 359.16 397.66 357.66C399.16 356.16 400 354.12 400 352C400 349.88 399.16 347.84 397.66 346.34C396.16 344.84 394.12 344 392 344Z" />
</svg>