<svg id="Layer_1" data-name="Layer 1" xmlns="http://www.w3.org/2000/svg" viewBox="0 0 1098.51 259.72"><defs><style>.cls-1{font-size:147.08px;fill:#f68e5d;font-weight:700;}.cls-1,.cls-2{font-family:Poppins;}.cls-2{font-size:58.45px;fill:#203040;}.cls-3{fill:#f37336;}.cls-4{fill:#fff;}</style></defs><title>logo</title><text class="cls-1" transform="translate(285.36 146.64)">DIPTIMATE</text><text class="cls-2" transform="translate(291.79 205.33)">Consultants Private Limited.</text><path class="cls-3" d="M36.17,73.39q0.16,66.67,0,133.32A130,130,0,0,1,36.17,73.39Z" transform="translate(-17.77 -10.19)"/><path class="cls-3" d="M85.67,228.25c-7.84.82-10.76-1.69-10.8-9.56-0.12-25.3,0-50.59,0-75.89,0-25.1-.07-50.2,0-75.3,0-8.61,2-10.54,10.7-10.45,15.51,0.19,31.14-1.42,46.49,1.76,41.23,8.54,68,42.63,68.3,84.74,0.32,39.61-28.16,72.92-63,81.8-13.36,3.41-27.2,3.63-41,2.86A65.12,65.12,0,0,0,85.67,228.25Z" transform="translate(-17.77 -10.19)"/><path class="cls-3" d="M277.48,140.05a129.88,129.88,0,0,1-192,114c4.93,0,9.88,0,14.83,0,13.34,0.18,26.64,0,39.85-2.17,49.17-8.11,92.88-50.71,97.19-98.89,1.89-21.18,0-41.83-10.13-60.68C204.1,49.41,167.41,27.86,118.91,26.13c-11.11-.4-22.25.13-33.37-0.16A129.9,129.9,0,0,1,277.48,140.05Z" transform="translate(-17.77 -10.19)"/><path class="cls-4" d="M36.17,206.71c0,1.08,0,2.16,0,3.24a24,24,0,0,0,7.72,18.33c7.06,6.74,14.29,13.32,21.36,20.07,4.31,4.11,9.49,5.71,15.27,5.73h5A130.39,130.39,0,0,1,36.17,206.71Z" transform="translate(-17.77 -10.19)"/></svg>