<svg xmlns="http://www.w3.org/2000/svg" viewBox="0 0 512 512" width="64" height="64">
	<style>
		tspan { white-space:pre }
		.shp0 { fill: #fd5b03 } 
	</style>
	<g id="Layer">
		<g id="Layer">
			<path id="Layer" fill-rule="evenodd" class="shp0" d="M512 111.59L512 400.41C512 414.85 500.18 426.67 485.74 426.67L26.26 426.67C11.81 426.67 0 414.85 0 400.41L0 111.59C0 97.15 11.81 85.33 26.26 85.33L485.74 85.33C500.19 85.33 512 97.15 512 111.59ZM36.11 105.02L240.89 258.63C244.58 261.43 250.23 263.18 256 263.15C261.77 263.18 267.42 261.43 271.1 258.63L475.89 105.02L36.11 105.02ZM367.96 254.91C372.18 251.49 378.39 252.14 381.81 256.37L492.3 392.87L492.3 117.33L282.91 274.38C275.03 280.25 265.45 282.83 256 282.85C246.53 282.82 236.96 280.24 229.09 274.38L19.69 117.33L19.69 392.87L130.19 256.37C133.61 252.14 139.81 251.49 144.04 254.91C148.27 258.34 148.92 264.53 145.5 268.76L33.91 406.61C33.8 406.75 33.66 406.85 33.54 406.98L478.46 406.98C478.34 406.85 478.2 406.75 478.09 406.61L366.5 268.76C363.08 264.53 363.73 258.33 367.96 254.91Z" />
		</g>
	</g>
	<g id="Layer">
	</g>
	<g id="Layer">
	</g>
	<g id="Layer">
	</g>
	<g id="Layer">
	</g>
	<g id="Layer">
	</g>
	<g id="Layer">
	</g>
	<g id="Layer">
	</g>
	<g id="Layer">
	</g>
	<g id="Layer">
	</g>
	<g id="Layer">
	</g>
	<g id="Layer">
	</g>
	<g id="Layer">
	</g>
	<g id="Layer">
	</g>
	<g id="Layer">
	</g>
	<g id="Layer">
	</g>
</svg>