<svg xmlns="http://www.w3.org/2000/svg" viewBox="0 0 512 512" width="64" height="64">
	<style>
		tspan { white-space:pre }
		.shp0 { fill: #fd5b03 } 
		.txt1 { font-size: 78px;fill: #fd5b03;font-weight: 400;font-family: "DejaVuSans", "DejaVu Sans" } 
		.shp2 { fill: none;stroke: #fd5b03;stroke-width: 8 } 
	</style>
	<g id="Layer">
		<g id="Layer">
			<g id="Layer">
				<path id="Layer" fill-rule="evenodd" class="shp0" d="M111.19 136.2C111.19 149.13 100.68 159.63 87.76 159.63L74.99 159.63L74.99 171.31C74.99 175.69 71.44 179.23 67.06 179.23C62.68 179.23 59.13 175.69 59.13 171.31L59.13 120.7C59.13 116.32 62.68 112.77 67.06 112.77L87.76 112.77C100.68 112.77 111.19 123.29 111.19 136.2ZM95.33 136.2C95.33 132.03 91.94 128.63 87.76 128.63L74.99 128.63L74.99 143.78L87.76 143.78C91.94 143.78 95.33 140.38 95.33 136.2Z" />
				<path id="Layer" class="shp0" d="M152.43 131.36L153.04 131.63C157.04 133.42 161.73 131.64 163.52 127.64C165.31 123.65 163.53 118.96 159.53 117.17L158.96 116.91C152.74 114.1 133.82 105.54 121.9 119.52C117.72 124.43 116.29 130.61 118 136.48C119.29 140.96 123.68 149.16 138.41 153.72C144.89 155.73 147.78 158.49 148.29 160.24C148.37 160.52 148.58 161.27 147.54 162.5C143.83 166.84 135.73 163.95 129.08 160.94L128.46 160.67C124.47 158.88 119.78 160.66 117.99 164.66C116.2 168.65 117.98 173.34 121.98 175.13L122.55 175.39C126.14 177.02 133.99 180.56 142.27 180.56C148.31 180.56 154.58 178.68 159.6 172.78C163.79 167.87 165.21 161.69 163.51 155.82C162.21 151.34 157.83 143.14 143.1 138.58C136.62 136.57 133.73 133.81 133.22 132.06C133.14 131.78 132.92 131.04 133.97 129.81C137.68 125.46 145.78 128.35 152.43 131.36Z" />
				<path id="Layer" fill-rule="evenodd" class="shp0" d="M496.82 90.61L496.82 504.07C496.82 508.45 493.27 512 488.9 512L78.16 512C73.78 512 70.23 508.45 70.23 504.07L70.23 209.62L23.1 209.62C18.72 209.62 15.18 206.07 15.18 201.69L15.18 90.61C15.18 86.23 18.73 82.68 23.1 82.68L70.23 82.68L70.23 7.93C70.23 3.55 73.78 0 78.16 0L406.22 0C408.32 0 410.33 0.83 411.82 2.32L494.5 85C495.99 86.49 496.82 88.51 496.82 90.61ZM480.97 496.14L480.97 98.54L406.22 98.54C401.84 98.54 398.29 94.99 398.29 90.61L398.29 15.86L86.09 15.86L86.09 82.68L263.36 82.68C267.74 82.68 271.29 86.23 271.29 90.61L271.29 201.69C271.29 206.07 267.74 209.62 263.36 209.62L86.09 209.62L86.09 496.14L480.97 496.14ZM255.43 193.77L255.43 98.54L31.03 98.54L31.03 193.77L255.43 193.77ZM414.14 82.68L469.76 82.68L414.14 27.07L414.14 82.68Z" />
				<path id="Layer" fill-rule="evenodd" class="shp0" d="M235.95 146.01C235.95 164.36 221.02 179.28 202.67 179.28L202.65 179.28L184.81 179.23C180.44 179.22 176.9 175.68 176.9 171.31L176.9 120.65C176.9 116.27 180.45 112.73 184.83 112.73L202.68 112.73C221.03 112.73 235.95 127.66 235.95 146.01ZM220.1 146C220.1 136.4 212.28 128.58 202.67 128.58L192.75 128.58L192.75 163.4L202.69 163.43C212.29 163.42 220.1 155.61 220.1 146Z" />
				<g id="Folder 1">
					<text id="HTML " style="transform: matrix(1.347,0,0,1.347,151.778,344.611)" >
						<tspan x="0" y="0" class="txt1">HTML</tspan>
					</text>
					<path id="Shape 1" class="shp2" d="M147 251.65L457 251.65C460.32 251.65 463 254.33 463 257.65L463 353.43C463 356.75 460.32 359.43 457 359.43L147 359.43C143.68 359.43 141 356.75 141 353.43L141 257.65C141 254.33 143.68 251.65 147 251.65Z" />
				</g>
			</g>
		</g>
	</g>
	<g id="Layer">
	</g>
	<g id="Layer">
	</g>
	<g id="Layer">
	</g>
	<g id="Layer">
	</g>
	<g id="Layer">
	</g>
	<g id="Layer">
	</g>
	<g id="Layer">
	</g>
	<g id="Layer">
	</g>
	<g id="Layer">
	</g>
	<g id="Layer">
	</g>
	<g id="Layer">
	</g>
	<g id="Layer">
	</g>
	<g id="Layer">
	</g>
	<g id="Layer">
	</g>
	<g id="Layer">
	</g>
</svg>