<svg xmlns="http://www.w3.org/2000/svg" viewBox="0 0 999 1027" width="64" height="66">
	<style>
		tspan { white-space:pre }
		.shp0 { fill: #32ba46 } 
		.shp1 { fill: #ffffff } 
	</style>
	<g id="OBJECTS">
		<g id="&lt;Group&gt;">
			<g id="&lt;Group&gt;">
				<g id="&lt;Group&gt;">
					<path id="&lt;Compound Path&gt;" class="shp0" d="M496.49 967.08C415.89 967.08 336.84 945.76 266.81 905.27L87.4 967.08L124.28 777.1C66.47 697.87 36 604.69 36 506.6C36 252.67 242.58 46.1 496.49 46.1C750.44 46.1 957 252.67 957 506.6C957 760.51 750.44 967.08 496.49 967.08Z" />
				</g>
			</g>
			<g id="&lt;Group&gt;">
				<g id="&lt;Group&gt;">
					<path id="&lt;Compound Path&gt;" fill-rule="evenodd" class="shp1" d="M496.49 807.43C443.84 807.43 392.19 793.5 346.45 767.04L229.24 807.43L253.32 683.31C215.57 631.55 195.66 570.68 195.66 506.59C195.66 340.7 330.61 205.75 496.49 205.75C662.39 205.75 797.34 340.7 797.34 506.59C797.34 672.48 662.39 807.43 496.49 807.43ZM351.86 717.84L360.92 723.52C401.78 749.13 448.66 762.67 496.49 762.67C637.72 762.67 752.59 647.79 752.59 506.59C752.59 365.39 637.72 250.51 496.49 250.51C355.3 250.51 240.42 365.39 240.42 506.59C240.42 564.03 259.24 618.47 294.81 664L301.1 672.04L287.94 739.86L351.86 717.84Z" />
				</g>
				<path id="&lt;Path&gt;" class="shp1" d="M344.62 391C356.4 370.43 367.08 359.56 376.67 358.39C391.06 356.62 409.59 356.62 414.57 366.03C417.91 372.29 427.02 393.65 441.9 430.09C444.45 436.36 443.77 442.54 439.85 448.61C435.94 454.68 429.57 462.12 420.75 470.94C415.86 477.21 415.86 483.68 420.75 490.34C428.1 500.32 439.5 518.69 463.08 542.25C478.77 557.96 501.69 571.42 531.83 582.62C536.15 583.2 539.68 582.12 542.43 579.38C545.16 576.64 553.98 565.96 568.87 547.35C573.65 541.18 580.02 539.91 587.96 543.53C595.9 547.16 617.05 557.54 651.43 574.68C655.46 576.15 657.47 579.92 657.47 585.99C657.47 595.1 653.78 617.39 646.24 624.92C638.7 632.47 616.67 655.7 583.55 655.7C550.44 655.7 471.57 628.75 429.55 586.74C387.53 544.7 350.22 502.09 341.41 463.31C332.59 424.51 333.77 406.98 344.62 391Z" />
			</g>
		</g>
	</g>
</svg>